<svg width="87" height="32" viewBox="0 0 87 32" fill="none" xmlns="http://www.w3.org/2000/svg">
<path fill-rule="evenodd" clip-rule="evenodd" d="M70.9059 14.9923C70.3412 15.2394 69.7765 15.4247 69.2118 15.5483L68.2079 15.7954C67.7059 15.9189 67.3294 16.1042 67.0784 16.3514C66.8902 16.6602 66.7647 16.9691 66.7647 17.278C66.7647 17.6486 66.8902 18.0193 67.1412 18.3282C67.3922 18.5753 67.7686 18.6988 68.2706 18.6988C69.0863 18.6988 69.7137 18.4517 70.153 18.0193C70.5922 17.5869 70.8431 16.9073 70.8431 16.1042V14.9923H70.9059ZM71.5961 20.305C70.9686 20.6139 70.3412 20.7992 69.651 20.861C69.0863 20.9228 68.4588 20.9846 67.8314 20.9846C66.8275 20.9846 65.8863 20.6757 65.1333 20.1197C64.3804 19.5637 63.9412 18.6371 63.9412 17.3398C63.9412 16.1042 64.3176 15.2394 65.0078 14.7452C65.698 14.251 66.6392 13.8803 67.7059 13.695C67.8941 13.695 68.0824 13.695 68.2079 13.6332C68.4588 13.5714 68.6471 13.5714 68.898 13.5097C70.153 13.3243 70.7804 12.9537 70.7804 12.3977C70.7804 11.9653 70.5294 11.6564 70.0902 11.5328C69.7137 11.4093 69.2745 11.3475 68.8353 11.3475C68.4588 11.3475 68.0824 11.4093 67.7686 11.5328C67.4549 11.6564 67.2039 11.9035 67.0784 12.2124H64.1922C64.3177 11.3475 64.6941 10.5444 65.3843 9.98842C66.1373 9.30888 67.2667 9 68.7098 9C70.3412 9 71.5333 9.2471 72.349 9.80309C73.1647 10.3591 73.6039 11.1622 73.6039 12.2124V16.166C73.6039 17.3398 73.4157 18.2046 72.9765 18.8842C72.7255 19.5019 72.2235 19.9961 71.5961 20.305ZM57.4784 20.7992V15.2394C57.4784 14.1274 57.6667 13.139 57.9804 12.3977C58.2941 11.6564 58.7333 11.0386 59.3608 10.5444C59.9255 10.112 60.5529 9.80309 61.3059 9.61776C62.0588 9.43243 62.8118 9.30888 63.5647 9.30888H63.9412V12.3977H62.9373C62.1216 12.3977 61.4941 12.583 61.0549 13.0154C60.6784 13.4479 60.4275 14.0656 60.4275 14.9305V20.861L57.4784 20.7992ZM54.2157 14.9923C53.651 15.2394 53.0863 15.4247 52.5216 15.5483L51.5177 15.7954C51.0157 15.9189 50.6392 16.1042 50.3882 16.3514C50.2 16.6602 50.0745 16.9691 50.0745 17.278C50.0745 17.6486 50.2 18.0193 50.451 18.3282C50.702 18.5753 51.0784 18.6988 51.5804 18.6988C52.3961 18.6988 53.0235 18.4517 53.4627 18.0193C53.902 17.5869 54.1529 16.9073 54.1529 16.1042L54.2157 14.9923ZM54.9059 20.305C54.2784 20.6139 53.651 20.7992 52.9608 20.861C52.3961 20.9228 51.7686 20.9846 51.1412 20.9846C50.1373 20.9846 49.1961 20.6757 48.4431 20.1197C47.6902 19.5637 47.251 18.6371 47.251 17.3398C47.251 16.1042 47.6275 15.2394 48.3176 14.7452C49.0078 14.251 49.949 13.8803 51.0157 13.695C51.2039 13.695 51.3922 13.695 51.5177 13.6332C51.7686 13.5714 51.9569 13.5714 52.2078 13.5097C53.4627 13.3243 54.0902 12.9537 54.0902 12.3977C54.0902 11.9653 53.8392 11.6564 53.4 11.5328C53.0235 11.4093 52.5843 11.3475 52.1451 11.3475C51.7686 11.3475 51.3922 11.4093 51.0784 11.5328C50.7647 11.6564 50.5137 11.9035 50.3882 12.2124H47.6275C47.7529 11.3475 48.1294 10.5444 48.8196 9.98842C49.5726 9.30888 50.702 9 52.1451 9C53.7765 9 54.9686 9.2471 55.7843 9.80309C56.6 10.3591 57.0392 11.1622 57.0392 12.2124V16.166C57.0392 17.3398 56.851 18.2046 56.4118 18.8842C56.0353 19.5019 55.5333 19.9961 54.9059 20.305ZM44.1137 15.0541C44.1137 13.9421 43.9255 13.0772 43.4863 12.4595C43.0471 11.8417 42.4196 11.5328 41.6039 11.5328C40.851 11.5328 40.2235 11.8417 39.7843 12.4595C39.4078 13.0154 39.1569 13.8803 39.1569 15.0541C39.1569 16.166 39.3451 16.9691 39.7843 17.5251C40.2235 18.1429 40.851 18.4517 41.6667 18.4517C42.3569 18.4517 43.0471 18.1429 43.4235 17.5251C43.8627 16.9073 44.1137 16.1042 44.1137 15.0541ZM39.1569 23.5174C39.1569 23.888 39.0314 24.2587 38.7176 24.5676C38.4667 24.8764 38.0902 25 37.651 25H36.2078V14.251C36.2078 12.2124 36.7726 10.8533 37.9647 10.112C39.0941 9.37066 40.4745 9 41.7922 9C42.5451 9 43.298 9.12355 43.9882 9.43243C44.6784 9.67954 45.2431 10.0502 45.7451 10.6062C46.6235 11.7181 47.0627 13.2008 47.0627 14.9305C47.0627 16.722 46.6235 18.2046 45.7451 19.3166C44.8667 20.4286 43.8 20.9846 42.4196 20.9846C41.7922 20.9846 41.102 20.861 40.5373 20.6139C39.9726 20.305 39.4706 19.8726 39.1569 19.2548V23.5174ZM33.0078 14.9923C32.4431 15.2394 31.8784 15.4247 31.3137 15.5483L30.3098 15.7336C29.8078 15.8571 29.4314 16.0425 29.1804 16.2896C28.9922 16.5985 28.8667 16.9073 28.8667 17.2162C28.8667 17.5869 28.9922 17.9575 29.2431 18.2664C29.4941 18.5135 29.8706 18.6371 30.3726 18.6371C31.1882 18.6371 31.8157 18.39 32.2549 17.9575C32.6941 17.5251 32.9451 16.8456 32.9451 16.0425L33.0078 14.9923ZM33.698 20.305C33.0706 20.6139 32.4431 20.7992 31.7529 20.861C31.1882 20.9228 30.5608 20.9846 29.9333 20.9846C28.9294 20.9846 27.9882 20.6757 27.2353 20.1197C26.4824 19.5637 26.0431 18.6371 26.0431 17.3398C26.0431 16.1042 26.4196 15.2394 27.1098 14.7452C27.8 14.251 28.7412 13.8803 29.8078 13.695C29.9961 13.695 30.1843 13.695 30.3098 13.6332C30.498 13.5714 30.749 13.5714 31 13.5097C32.2549 13.3243 32.8824 12.9537 32.8824 12.3977C32.8824 11.9653 32.6314 11.6564 32.1922 11.5328C31.8157 11.4093 31.3765 11.3475 30.9373 11.3475C30.5608 11.3475 30.1843 11.4093 29.8706 11.5328C29.5569 11.6564 29.3059 11.9035 29.1804 12.2124H26.2941C26.4196 11.3475 26.7961 10.5444 27.4863 9.98842C28.2392 9.30888 29.3686 9 30.8118 9C32.4431 9 33.6353 9.2471 34.451 9.80309C35.2667 10.3591 35.7059 11.1622 35.7059 12.2124V16.166C35.7059 17.3398 35.5177 18.2046 35.0784 18.8842C34.8275 19.5019 34.3255 19.9961 33.698 20.305ZM17.949 23.5174C17.949 23.888 17.8235 24.2587 17.5098 24.5676C17.2588 24.8764 16.8824 25 16.4431 25H15V14.251C15 12.2124 15.5647 10.8533 16.7569 10.112C17.8863 9.37066 19.2667 9 20.5843 9C21.3373 9 22.0902 9.12355 22.7804 9.43243C23.4706 9.67954 24.0353 10.0502 24.5373 10.6062C25.4157 11.7181 25.8549 13.2008 25.8549 14.9305C25.8549 16.722 25.4157 18.2046 24.5373 19.3166C23.6588 20.4286 22.5922 20.9846 21.2118 20.9846C20.5843 20.9846 19.8941 20.861 19.3294 20.6139C18.7647 20.305 18.2627 19.8726 17.949 19.2548V23.5174ZM22.8431 15.0541C22.8431 13.9421 22.6549 13.0772 22.2157 12.4595C21.7765 11.8417 21.149 11.5328 20.3333 11.5328C19.5804 11.5328 18.9529 11.8417 18.5137 12.4595C18.1373 13.0154 17.8863 13.8803 17.8863 15.0541C17.8863 16.166 18.0745 16.9691 18.5137 17.5251C18.9529 18.1429 19.5804 18.4517 20.3961 18.4517C21.0863 18.4517 21.7765 18.1429 22.1529 17.5251C22.6549 16.9073 22.8431 16.1042 22.8431 15.0541Z" fill="url(#paint0_linear_4579_20691)"/>
<defs>
<linearGradient id="paint0_linear_4579_20691" x1="27.2569" y1="35.1436" x2="58.0264" y2="-2.10134" gradientUnits="userSpaceOnUse">
<stop stop-color="#E14A55"/>
<stop offset="1" stop-color="#8E278F"/>
</linearGradient>
</defs>
</svg>
