<svg xmlns="http://www.w3.org/2000/svg" width="70" height="20" viewBox="0 0 70 20" id="fixturka"
    class="PaymentIcon_color_CcKvf PaymentIcon_icon_tinGf" style="height: 25px;">
    <defs>
        <filter id="fixturka_svg__a" width="138%" height="235%" x="-19%" y="-67.5%" filterUnits="objectBoundingBox">
            <feOffset dy="3" in="SourceAlpha" result="shadowOffsetOuter1"></feOffset>
            <feGaussianBlur in="shadowOffsetOuter1" result="shadowBlurOuter1" stdDeviation="2"></feGaussianBlur>
            <feColorMatrix in="shadowBlurOuter1" result="shadowMatrixOuter1"
                values="0 0 0 0 0 0 0 0 0 0 0 0 0 0 0 0 0 0 0.09 0"></feColorMatrix>
            <feMerge>
                <feMergeNode in="shadowMatrixOuter1"></feMergeNode>
                <feMergeNode in="SourceGraphic"></feMergeNode>
            </feMerge>
        </filter>
    </defs>
    <g fill="none" fill-rule="evenodd">
        <g class="fixturka_svg__color" fill-rule="nonzero">
            <g fill="#FF2E1F">
                <path
                    d="M48.671 18.283V5.916h7.343l.021 2.282h-5.067v3.06h4.884v2.276h-4.884v4.749zM59.039 5.548c.763 0 1.385.573 1.385 1.364 0 .792-.622 1.35-1.385 1.35s-1.392-.558-1.392-1.35c-.007-.791.629-1.364 1.392-1.364zm-1.237 3.831h2.438v8.905h-2.438zm8.064 6.134l-1.937 2.848h-2.565l3.237-4.551-3.223-4.354h2.587l1.908 2.658 1.908-2.658h2.474l-3.174 4.445 3.195 4.46h-2.311z">
                </path>
            </g>
            <path fill="#4A4C4E"
                d="M22.657 5.936c2.537 0 4.085 2.022 4.085 4.163 0 2.177-1.562 3.993-4.092 3.993h-2.466v4.261h-2.29V5.936h4.763zm-2.48 6.106h1.434c1.901 0 2.877-.671 2.877-1.88C24.488 8.948 23.66 8 22.219 8h-2.042v4.042zm23.929 6.34l-.247.614c-.792 1.972-2.587 3.237-4.446 2.827l.043-1.858c1.116.212 2.085-.707 2.205-1.647l-3.442-8.72h2.24l2.39 6.19 2.12-6.19h2.41c-.404 1.236-3.259 8.762-3.273 8.784z">
            </path>
            <g>
                <path fill="#FF2E1F"
                    d="M6.968 5.35c.142 0 .276.007.41.014V2.028H1.703v19.915H3.69v-6.84h3.682v-3.38c-.424.057-.883.085-1.385.085h-2.29V5.336h3.272v.014z">
                </path>
                <path fill="#4A4C4E"
                    d="M1.703 21.943V2.035H.014v19.916h3.668v-.008zm5.937-6.826c4.056 0 6.565-2.92 6.565-6.403 0-3.442-2.48-6.679-6.551-6.679H7.37v3.336c2.05.17 3.216 1.618 3.216 3.442 0 1.611-1.089 2.629-3.216 2.918v3.371">
                </path>
            </g>
            <path fill="#4A4C4E"
                d="M34.657 9.456v.777a4.576 4.576 0 00-2.805-.954 4.62 4.62 0 00-4.615 4.615 4.62 4.62 0 004.615 4.615c1.053 0 2.028-.36 2.805-.954v.798h2.156V9.456h-2.156zM31.852 16.6a2.712 2.712 0 01-2.707-2.707 2.712 2.712 0 012.707-2.707 2.712 2.712 0 012.706 2.707 2.711 2.711 0 01-2.706 2.707z">
            </path>
        </g>
    </g>
    <g fill="none" fill-rule="evenodd">
        <g fill="#FFF" fill-rule="nonzero">
            <g class="fixturka_svg__mono" filter="url(#fixturka_svg__a)" transform="translate(0 2)">
                <g opacity=".75">
                    <path
                        d="M48.671 16.283V3.916h7.343l.021 2.282h-5.067v3.06h4.884v2.276h-4.884v4.749zM59.039 3.548c.763 0 1.385.573 1.385 1.364 0 .792-.622 1.35-1.385 1.35s-1.392-.558-1.392-1.35c-.007-.791.629-1.364 1.392-1.364zm-1.237 3.831h2.438v8.905h-2.438zm8.064 6.134l-1.937 2.848h-2.565l3.237-4.551-3.223-4.354h2.587l1.908 2.658 1.908-2.658h2.474l-3.174 4.445 3.195 4.46h-2.311z">
                    </path>
                </g>
                <path
                    d="M22.657 3.936c2.537 0 4.085 2.022 4.085 4.163 0 2.177-1.562 3.993-4.092 3.993h-2.466v4.261h-2.29V3.936h4.763zm-2.48 6.106h1.434c1.901 0 2.877-.671 2.877-1.88C24.488 6.948 23.66 6 22.219 6h-2.042v4.042zm23.929 6.34l-.247.614c-.792 1.972-2.587 3.237-4.446 2.827l.043-1.858c1.116.212 2.085-.707 2.205-1.647l-3.442-8.72h2.24l2.39 6.19 2.12-6.19h2.41c-.404 1.236-3.259 8.762-3.273 8.784z">
                </path>
                <g>
                    <path
                        d="M6.968 3.35c.142 0 .276.007.41.014V.028H1.703v19.915H3.69v-6.84h3.682v-3.38c-.424.057-.883.085-1.385.085h-2.29V3.336h3.272v.014z"
                        opacity=".75"></path>
                    <path
                        d="M1.703 19.943V.035H.014v19.916h3.668v-.008zm5.937-6.826c4.056 0 6.565-2.92 6.565-6.403 0-3.442-2.48-6.679-6.551-6.679H7.37v3.336c2.05.17 3.216 1.618 3.216 3.442 0 1.611-1.089 2.629-3.216 2.918v3.371">
                    </path>
                </g>
                <path
                    d="M34.657 7.456v.777a4.576 4.576 0 00-2.805-.954 4.62 4.62 0 00-4.615 4.615 4.62 4.62 0 004.615 4.615c1.053 0 2.028-.36 2.805-.954v.798h2.156V7.456h-2.156zM31.852 14.6a2.712 2.712 0 01-2.707-2.707 2.712 2.712 0 012.707-2.707 2.712 2.712 0 012.706 2.707 2.711 2.711 0 01-2.706 2.707z">
                </path>
            </g>
        </g>
    </g>
</svg>