<svg width="83" height="32" viewBox="0 0 83 32" fill="none" xmlns="http://www.w3.org/2000/svg">
<path d="M27.7005 18.419C26.365 23.7762 20.939 27.0365 15.5811 25.7006C10.2256 24.365 6.96528 18.9387 8.30144 13.582C9.63642 8.22419 15.0624 4.96366 20.4186 6.29923C25.776 7.63481 29.0361 13.0617 27.7004 18.4191L27.7005 18.419H27.7005Z" fill="#F7931A"/>
<path fill-rule="evenodd" clip-rule="evenodd" d="M22.4099 14.5753C22.6089 13.2445 21.5957 12.5292 20.2103 12.0519L20.6597 10.2493L19.5624 9.97585L19.1249 11.7311C18.8364 11.6591 18.5401 11.5913 18.2457 11.5241L18.6864 9.75732L17.5897 9.48389L17.1401 11.286C16.9013 11.2316 16.6669 11.1779 16.4394 11.1213L16.4406 11.1156L14.9274 10.7377L14.6355 11.9098C14.6355 11.9098 15.4496 12.0964 15.4325 12.1079C15.8768 12.2188 15.9572 12.5129 15.9438 12.7461L15.4319 14.7997C15.4625 14.8075 15.5022 14.8187 15.546 14.8363L15.5141 14.8284L15.5141 14.8284C15.487 14.8216 15.4589 14.8146 15.43 14.8077L14.7124 17.6845C14.6581 17.8195 14.5202 18.0221 14.2096 17.9452C14.2206 17.9611 13.412 17.7462 13.412 17.7462L12.8672 19.0023L14.2952 19.3582C14.4516 19.3975 14.6061 19.4377 14.7591 19.4776L14.7592 19.4776C14.866 19.5055 14.9721 19.5332 15.0775 19.5601L14.6235 21.3835L15.7195 21.6569L16.1692 19.8529C16.4686 19.9342 16.7592 20.0092 17.0437 20.0798L16.5955 21.8753L17.6929 22.1488L18.147 20.3288C20.0181 20.683 21.4251 20.5402 22.0174 18.8477C22.4946 17.4851 21.9936 16.6991 21.0092 16.1865C21.7262 16.0212 22.2662 15.5496 22.4102 14.5754L22.4099 14.5752L22.4099 14.5753ZM19.9027 18.0914C19.5916 19.3416 17.6347 18.8247 16.7393 18.5882L16.7393 18.5882C16.6588 18.567 16.5868 18.548 16.5254 18.5327L17.128 16.1171C17.2028 16.1358 17.2943 16.1563 17.3978 16.1796C18.324 16.3874 20.2215 16.8132 19.9027 18.0914H19.9027ZM17.5834 15.0581C18.3299 15.2573 19.9583 15.6919 20.2419 14.5556H20.242C20.5316 13.3935 18.949 13.0431 18.1761 12.872C18.0892 12.8527 18.0125 12.8358 17.9498 12.8201L17.4035 15.0109C17.4551 15.0238 17.5156 15.04 17.5834 15.0581Z" fill="white"/>
<path d="M37.6034 15.2978C38.1776 15.3483 38.6577 15.559 39.0437 15.9298C39.4391 16.2921 39.6367 16.7767 39.6367 17.3834C39.6367 18.1503 39.3543 18.7528 38.7895 19.191C38.2341 19.6292 37.4669 19.8483 36.4878 19.8483H33V11H36.3043C37.2927 11 38.0693 11.2065 38.6342 11.6194C39.199 12.0239 39.4814 12.5843 39.4814 13.3006C39.4814 14.4129 38.8554 15.0787 37.6034 15.2978ZM36.2336 12.2767H34.6239V14.7037H36.2336C36.742 14.7037 37.1374 14.5983 37.4198 14.3876C37.7116 14.1685 37.8575 13.8694 37.8575 13.4902C37.8575 13.1025 37.7163 12.8034 37.4339 12.5927C37.1515 12.382 36.7514 12.2767 36.2336 12.2767ZM36.4596 18.5716C36.9491 18.5716 37.3304 18.4537 37.6034 18.2177C37.8764 17.9817 38.0129 17.6531 38.0129 17.2317C38.0129 16.861 37.8717 16.5618 37.5892 16.3343C37.3068 16.0983 36.935 15.9803 36.4737 15.9803H34.6239V18.5716H36.4596Z" fill="white"/>
<path d="M42.7851 12.8202C42.5686 13.014 42.2956 13.111 41.9661 13.111C41.6366 13.111 41.3636 13.014 41.1471 12.8202C40.9306 12.618 40.8223 12.3736 40.8223 12.0871C40.8223 11.8006 40.9306 11.5604 41.1471 11.3666C41.3636 11.1643 41.6366 11.0632 41.9661 11.0632C42.2956 11.0632 42.5686 11.1643 42.7851 11.3666C43.0016 11.5604 43.1099 11.8006 43.1099 12.0871C43.1099 12.3736 43.0016 12.618 42.7851 12.8202ZM41.1895 19.8483V13.9579H42.7286V19.8483H41.1895Z" fill="white"/>
<path d="M47.6853 18.6854C47.996 18.6854 48.2549 18.6685 48.462 18.6348V19.8483C48.1419 19.8989 47.7607 19.9242 47.3182 19.9242C47.064 19.9242 46.8428 19.9073 46.6545 19.8736C46.4663 19.8399 46.245 19.764 45.9909 19.6461C45.7367 19.5197 45.539 19.3048 45.3978 19.0014C45.2566 18.698 45.186 18.3146 45.186 17.8511V15.1081H44.0704V13.9579H45.186V12.1756H46.7251V13.9579H48.2361V15.1081H46.7251V17.5351C46.7251 18.007 46.8004 18.3188 46.9511 18.4705C47.1017 18.6138 47.3464 18.6854 47.6853 18.6854Z" fill="white"/>
<path d="M52.5899 20C51.5826 20 50.7824 19.7177 50.1894 19.1531C49.6057 18.5801 49.3139 17.8301 49.3139 16.9031C49.3139 15.9761 49.6057 15.2303 50.1894 14.6657C50.7824 14.0927 51.5826 13.8062 52.5899 13.8062C53.4936 13.8062 54.2185 14.0126 54.7645 14.4256C55.3199 14.8301 55.6353 15.3736 55.7106 16.0562H54.1714C54.002 15.3736 53.4748 15.0323 52.5899 15.0323C52.0439 15.0323 51.6155 15.1966 51.3049 15.5253C51.0036 15.8455 50.853 16.3048 50.853 16.9031C50.853 17.5014 51.0036 17.9649 51.3049 18.2935C51.6155 18.6138 52.0439 18.7739 52.5899 18.7739C53.4654 18.7739 53.9925 18.4537 54.1714 17.8132H55.7106C55.6353 18.4789 55.3199 19.0098 54.7645 19.4059C54.2185 19.802 53.4936 20 52.5899 20Z" fill="white"/>
<path d="M62.8444 19.1278C62.2231 19.7093 61.3806 20 60.3168 20C59.253 20 58.4058 19.7093 57.7751 19.1278C57.1537 18.5379 56.8431 17.7963 56.8431 16.9031C56.8431 16.0098 57.1537 15.2725 57.7751 14.691C58.4058 14.1011 59.253 13.8062 60.3168 13.8062C61.3806 13.8062 62.2231 14.1011 62.8444 14.691C63.4751 15.2725 63.7905 16.0098 63.7905 16.9031C63.7905 17.7963 63.4751 18.5379 62.8444 19.1278ZM58.8906 18.2556C59.2389 18.6011 59.7143 18.7739 60.3168 18.7739C60.9193 18.7739 61.39 18.6011 61.7289 18.2556C62.0772 17.9101 62.2513 17.4593 62.2513 16.9031C62.2513 16.3469 62.0772 15.8961 61.7289 15.5506C61.39 15.2051 60.9193 15.0323 60.3168 15.0323C59.7143 15.0323 59.2389 15.2051 58.8906 15.5506C58.5517 15.8961 58.3822 16.3469 58.3822 16.9031C58.3822 17.4593 58.5517 17.9101 58.8906 18.2556Z" fill="white"/>
<path d="M66.8621 12.8202C66.6456 13.014 66.3726 13.111 66.0431 13.111C65.7136 13.111 65.4406 13.014 65.2241 12.8202C65.0076 12.618 64.8993 12.3736 64.8993 12.0871C64.8993 11.8006 65.0076 11.5604 65.2241 11.3666C65.4406 11.1643 65.7136 11.0632 66.0431 11.0632C66.3726 11.0632 66.6456 11.1643 66.8621 11.3666C67.0786 11.5604 67.1869 11.8006 67.1869 12.0871C67.1869 12.3736 67.0786 12.618 66.8621 12.8202ZM65.2664 19.8483V13.9579H66.8056V19.8483H65.2664Z" fill="white"/>
<path d="M68.7828 19.8483V13.9579H70.322V14.7795C70.7456 14.1306 71.4611 13.8062 72.4683 13.8062C74.0687 13.8062 74.8689 14.5857 74.8689 16.1447V19.8483H73.3297V16.7767C73.3297 16.1362 73.2215 15.677 73.0049 15.3989C72.7884 15.1208 72.4166 14.9817 71.8894 14.9817C71.3905 14.9817 71.0045 15.125 70.7315 15.4115C70.4585 15.6896 70.322 16.0899 70.322 16.6124V19.8483H68.7828Z" fill="white"/>
</svg>
